<svg xmlns="http://www.w3.org/2000/svg" xmlns:xlink="http://www.w3.org/1999/xlink" width="24" height="24" viewBox="0 0 24 24">
  <defs>
    <clipPath id="clip-sortZA">
      <rect width="24" height="24"/>
    </clipPath>
  </defs>
  <g id="sortZA" clip-path="url(#clip-sortZA)">
    <g id="Grupo_15" data-name="Grupo 15" transform="translate(-752 -896)">
      <rect id="Rectángulo_18" data-name="Rectángulo 18" width="24" height="24" transform="translate(752 896)" fill="none"/>
      <path id="Icon_awesome-sort-alpha-down-alt" data-name="Icon awesome-sort-alpha-down-alt" d="M9.429,19.393H6.857V3.107A.857.857,0,0,0,6,2.25H4.286a.857.857,0,0,0-.857.857V19.393H.857a.858.858,0,0,0-.6,1.463L4.538,26A.857.857,0,0,0,5.75,26l4.286-5.143A.858.858,0,0,0,9.429,19.393Zm6-6.857h6.857a.857.857,0,0,0,.857-.857V9.964a.857.857,0,0,0-.857-.857h-3l3.282-3.774a1.714,1.714,0,0,0,.575-1.281V3.107a.857.857,0,0,0-.857-.857H15.429a.857.857,0,0,0-.857.857V4.821a.857.857,0,0,0,.857.857h3L15.147,9.453a1.714,1.714,0,0,0-.575,1.281v.944A.857.857,0,0,0,15.429,12.536ZM23.95,25.1l-3.175-8.571a.857.857,0,0,0-.807-.569h-2.22a.857.857,0,0,0-.807.569L13.765,25.1a.857.857,0,0,0,.807,1.145H15.9a.857.857,0,0,0,.816-.594l.237-.692h3.8l.236.692a.857.857,0,0,0,.818.594h1.331A.857.857,0,0,0,23.95,25.1Zm-5.971-3.14.878-2.571.878,2.571Z" transform="translate(752 893.75)" fill="#1f1f1f"/>
    </g>
  </g>
</svg>
